<?xml version="1.0" standalone="no"?>
<!DOCTYPE svg PUBLIC "-//W3C//DTD SVG 20010904//EN"
        "http://www.w3.org/TR/2001/REC-SVG-20010904/DTD/svg10.dtd">
<svg version="1.0" xmlns="http://www.w3.org/2000/svg"
     width="236.000000pt" height="172.000000pt" viewBox="0 0 236.000000 172.000000"
     preserveAspectRatio="xMidYMid meet">

    <g transform="translate(0.000000,172.000000) scale(0.100000,-0.100000)"
       fill="#000000" stroke="none">
        <path d="M1032 1540 c-181 -48 -318 -146 -421 -304 -45 -69 -91 -178 -91 -215
0 -25 13 -2 31 53 45 147 187 316 324 388 119 62 203 83 335 83 132 0 216 -21
335 -83 137 -72 279 -241 324 -388 18 -55 31 -78 31 -53 0 37 -46 146 -90 212
-140 215 -349 328 -604 326 -66 0 -127 -7 -174 -19z"/>
        <path d="M183 963 c15 -4 17 -18 17 -108 0 -90 -2 -104 -17 -108 -10 -3 0 -5
22 -5 22 0 32 2 23 5 -16 4 -18 17 -18 99 0 52 2 94 4 94 2 0 23 -45 47 -100
24 -55 47 -99 52 -97 4 1 26 43 48 92 22 50 44 94 50 99 5 6 9 -26 9 -86 0
-84 -2 -97 -17 -101 -10 -3 0 -5 22 -5 22 0 32 2 23 5 -16 4 -18 18 -18 108 0
90 2 104 18 109 9 2 4 4 -12 3 -26 -2 -32 -10 -74 -104 -25 -56 -48 -100 -52
-98 -3 2 -26 49 -50 104 -40 91 -47 101 -70 100 -17 -1 -19 -3 -7 -6z"/>
        <path d="M1273 963 c15 -4 17 -18 17 -108 0 -90 -2 -104 -17 -108 -10 -3 0 -5
22 -5 22 0 32 2 23 5 -16 4 -18 17 -17 101 l1 97 49 -104 c28 -60 53 -100 58
-95 5 5 25 47 46 94 21 47 41 89 46 94 5 6 9 -31 9 -86 0 -84 -2 -97 -17 -101
-10 -3 0 -5 22 -5 22 0 32 2 23 5 -16 4 -18 18 -18 108 0 90 2 104 18 109 9 2
4 4 -11 3 -25 -2 -32 -11 -74 -105 -25 -57 -49 -99 -53 -95 -4 4 -27 52 -50
106 -39 88 -45 97 -69 96 -17 -1 -20 -3 -8 -6z"/>
        <path d="M906 951 c-4 -5 -2 -12 3 -15 5 -4 12 -2 15 3 4 5 2 12 -3 15 -5 4
-12 2 -15 -3z"/>
        <path d="M2016 951 c-4 -5 -2 -12 3 -15 5 -4 12 -2 15 3 4 5 2 12 -3 15 -5 4
-12 2 -15 -3z"/>
        <path d="M533 900 c-73 -30 -64 -140 13 -164 53 -16 109 44 97 106 -9 48 -64
77 -110 58z m60 -9 c14 -6 29 -23 35 -40 23 -66 -30 -125 -91 -102 -54 21 -58
112 -7 138 30 15 32 15 63 4z"/>
        <path d="M1023 900 c-63 -25 -56 -146 9 -163 19 -5 17 -2 -9 19 -18 14 -33 34
-33 45 0 17 8 19 70 19 60 0 70 2 70 18 0 21 -27 62 -41 62 -5 0 0 -9 11 -20
38 -38 27 -50 -45 -50 -45 0 -65 4 -65 13 0 21 15 36 50 51 37 16 21 21 -17 6z"/>
        <path d="M1613 900 c-33 -13 -28 -22 4 -9 35 13 70 4 78 -21 10 -30 -2 -40
-49 -40 -48 0 -69 -17 -64 -51 5 -36 36 -50 81 -34 20 7 37 9 37 4 0 -5 10 -8
23 -8 16 1 18 2 5 6 -15 4 -18 16 -18 68 0 55 -3 66 -22 79 -25 18 -42 19 -75
6z m87 -98 c0 -11 -9 -27 -19 -36 -25 -23 -84 -18 -89 7 -7 37 5 47 58 47 42
0 50 -3 50 -18z"/>
        <path d="M1838 896 c-16 -8 -28 -11 -28 -5 0 5 -10 8 -22 8 -17 -1 -19 -2 -5
-6 14 -4 17 -16 17 -73 0 -57 -3 -69 -17 -73 -10 -3 0 -5 22 -5 22 0 32 2 23
5 -14 4 -18 15 -18 58 0 46 4 56 26 74 33 26 49 26 74 1 27 -27 29 -126 3
-133 -10 -3 0 -5 22 -5 22 0 32 2 23 5 -14 4 -18 15 -18 59 0 45 -4 59 -25 79
-28 29 -40 30 -77 11z"/>
        <path d="M2123 900 c-33 -13 -28 -22 4 -9 36 13 70 4 78 -22 9 -28 -2 -37 -54
-41 -32 -2 -48 -9 -58 -25 -14 -20 -13 -24 10 -47 25 -25 55 -26 86 -2 11 8
15 8 18 -1 3 -7 14 -12 26 -12 17 1 18 2 5 6 -15 4 -18 16 -18 68 0 55 -3 66
-22 79 -25 18 -42 19 -75 6z m87 -97 c0 -28 -31 -53 -66 -53 -38 0 -58 24 -43
52 14 25 109 26 109 1z"/>
        <path d="M675 890 c13 -5 32 -34 50 -79 15 -39 31 -71 35 -71 4 0 22 34 40 74
18 41 40 77 49 79 9 3 0 5 -19 6 -21 0 -30 -2 -22 -7 10 -7 6 -23 -17 -73
l-29 -64 -29 65 c-21 45 -27 67 -19 72 6 4 -5 7 -24 7 -29 0 -31 -2 -15 -9z"/>
        <path d="M893 893 c14 -4 17 -16 17 -73 0 -57 -3 -69 -17 -73 -10 -3 0 -5 22
-5 22 0 32 2 23 5 -15 4 -18 16 -18 79 0 70 -1 74 -22 73 -17 -1 -19 -2 -5 -6z"/>
        <path d="M2003 893 c14 -4 17 -16 17 -73 0 -57 -3 -69 -17 -73 -10 -3 0 -5 22
-5 22 0 32 2 23 5 -15 4 -18 16 -18 79 0 70 -1 74 -22 73 -17 -1 -19 -2 -5 -6z"/>
        <path d="M1090 753 c-14 -7 -18 -13 -10 -13 17 0 47 17 40 23 -3 2 -16 -2 -30
-10z"/>
        <path d="M523 672 c18 -90 87 -218 164 -303 78 -86 221 -171 344 -205 87 -24
271 -24 358 0 182 50 335 166 433 327 39 64 83 180 75 202 -2 6 -12 -13 -22
-43 -62 -189 -187 -335 -360 -421 -97 -48 -190 -69 -311 -69 -301 0 -562 193
-658 488 -19 56 -32 70 -23 24z"/>
    </g>
</svg>
